<?xml version="1.0" encoding="UTF-8"?>
<svg id="Layer_2" xmlns="http://www.w3.org/2000/svg" viewBox="0 0 723.25 107.19">
  <defs>
    <style>
      .cls-1 {
        fill: #fff;
      }
    </style>
  </defs>
  <g id="Layer_1-2" data-name="Layer_1">
    <g>
      <path class="cls-1" d="M585.34,62.16v40.3c0,2.5-.6,3.1-2.9,2.9-2.4-.1-4.8-.1-7.2,0-2.3.2-3.2-.6-2.9-2.9.2-.9.5-2.2-.3-2.6-.8-.5-1.5.8-2.3,1.2-10.6,7.5-22,7.5-33.2,2.5-11.5-5.2-18-14.9-18.9-27.7-1.2-15.1,4.5-27.1,18-34.2,11.7-6,23.7-5.1,34.6,2.6.6.5,1.2,1.5,2,1.1s.3-1.5.3-2.3c0-7.2.2-14.6,0-21.8,0-1.9.5-2.5,2.3-2.3,2.7.2,5.4.2,8.2,0,2-.1,2.5.6,2.5,2.5v40.7h-.2ZM530.74,72.16c-.3,12,9.2,21.9,21.2,22.2h0c11.1,0,20.8-10,20.8-21.4s-9.8-22.3-21.1-22.2c-11.6.2-21,9.8-20.9,21.4h0Z"/>
      <path class="cls-1" d="M593.04,62.66V23.76q0-4.8,4.6-4.8h48.5q3.7,0,3.7,3.9c0,1.8-.2,3.5,0,5.4.2,2.1-.5,2.9-2.8,2.9-12.2-.1-24.3,0-36.5-.1-2.9,0-3.5.8-3.5,3.5.2,6.3.2,12.8,0,19.1,0,2.5.8,2.9,3.1,2.9,12-.2,24,0,35.8,0q3.7,0,3.8,3.8c0,1.9-.2,3.7,0,5.5.2,2.1-.6,2.9-2.8,2.9-12-.1-24.2,0-36.1,0q-3.7,0-3.7,3.7c0,6,.2,12.2-.2,18.2-.2,2.6.8,3.1,3.2,3.1,12.2-.2,24.3,0,36.5-.2,2.5,0,3.4.8,3.1,3.2-.2,2.4-.2,4.7,0,7.1.2,2.1-.6,2.9-2.9,2.9-6.8-.2-13.7,0-20.5,0h-30.3c-2.5,0-3.4-.6-3.4-3.4.4-13.6.4-27.2.4-40.7h0Z"/>
      <path class="cls-1" d="M263.74,106.66c-4.6,0-8.9-.1-13.4,0-1.7,0-2-1.1-2.5-2.1-2.5-6.3-4.8-12.8-7.1-19.1-.8-2.2-1.7-3.1-4.2-2.9-8.8.2-17.5.2-26.3,0-1.6-.2-3.2.9-3.5,2.5-2.5,6.6-5.1,13.2-7.5,19.8-.3,1.3-1.5,2.1-2.8,2-4.1-.2-8.1,0-12.6,0,2-5.4,4-10.5,6-15.5,8.9-22.6,17.7-45.2,26.4-67.8.8-1.8,1.5-2.6,3.5-2.5,2.9.1,5.7.1,8.6,0,1.1-.2,2.2.5,2.6,1.5,10.8,27.8,21.6,55.7,32.6,83.5l.2.6ZM223.94,39.86c-3.7,9.7-7.1,18.6-10.5,27.5-.5,1.1,0,1.5,1.1,1.5h18.5c1.1,0,1.5-.2,1.1-1.5-3.3-8.8-6.7-17.9-10.2-27.5Z"/>
      <path class="cls-1" d="M427.44,77.56h-24.5c-2.3,0-2.5.6-1.8,2.6,2.9,7.5,8.1,12.5,16.3,13.7,7.7,1.5,15.4-2,19.5-8.6.4-1.1,1.5-1.7,2.6-1.5,3.7.2,7.2,0,10.9,0,1.5,0,2.2.3,1.4,1.8-4.6,10.5-11.8,18.6-23.2,20.8-24.9,4.8-41.2-11.8-42.1-33-.8-16.8,11.5-30,23.2-33.7,17.8-5.7,36.8,4.1,42.6,21.8.6,1.8,1,3.7,1.3,5.5.4,2.8.7,5.5.8,8.3.2,1.9-.3,2.6-2.5,2.6-8.1-.4-16.4-.3-24.5-.3ZM420.14,65.66c5.7,0,11.4-.2,17.1,0,2.6,0,2.5-.8,1.7-2.8-3.5-7.9-9.5-12.5-18.3-12.3s-15.1,4.7-18.8,12.7c-.8,1.7-.8,2.5,1.5,2.5,5.6-.2,11.1,0,16.8-.1h0Z"/>
      <path class="cls-1" d="M715.64,106.66c-6.2,1.7-9.1-1.7-11.7-6.6-4.5-8.5-9.8-16.3-14.2-24.8-1.1-2-1.5-1.4-2.5.2-5.5,9.8-11.7,19.5-17.7,29.2-.7,1.4-2.3,2.3-3.8,2.2-3.2-.2-6.6,0-9.8,0-2.6,0-2.8-.3-1.4-2.6,6.8-11.1,13.7-22,20.6-33.1,1.7-2.8,3.4-5.5,5.2-8.3,1-1.2,1-2.9,0-4.2-7.2-11.8-14.5-23.8-21.5-35.7-.6-1.1-2.2-2.3-1.4-3.7.8-1.1,2.5-.3,3.7-.5,1.2-.1,2.5-.1,3.7,0q7.1,0,10.6,6c4.2,7.2,8.3,14.3,12.3,21.5.9,1.7,1.4,1.7,2.3,0,4.6-8.5,10-16.3,14.9-24.6,1-2.1,3.2-3.4,5.5-3.1,2.8.2,5.6.2,8.5,0,.8,0,1.8-.5,2.3.5s-.6,1.5-.9,2.1c-7.5,12.3-15.1,24.6-22.8,36.9-1,1.1-1,2.8-.2,4,8.5,14,16.8,28,25.2,42,1.1,1.7,1.1,2.5-1.2,2.5-1.9,0-3.9.1-5.7.1Z"/>
      <path class="cls-1" d="M352.64,106.66c-17.7,0-31.2-11.5-33.8-27.4-3.4-19.8,9.1-36,24.5-40,17.7-4.6,34.1,3.1,40.6,21.5.5,1.5.5,2-1.2,2-3.7,0-7.2-.2-10.9,0-1,.1-2-.5-2.3-1.5-5.1-9.4-16.1-11.8-24.6-8.8-8.5,3.1-13.7,12.9-12.8,22.8,1.1,12.8,12.8,22.5,26.6,18.1,4.7-1.5,8.6-4.8,10.8-9.2.5-1.3,1.8-2.2,3.2-2,3.4.2,6.8,0,10.1,0,1.2,0,2.1,0,1.5,1.7-4.3,11.2-11.3,19.7-23.6,22.7-2.6.2-5.3.2-8.1.1Z"/>
      <path class="cls-1" d="M514.44,84.76v19.7c0,1.7-.5,2.3-2.2,2.1-2.7-.1-5.4-.1-8.2,0-2.3.2-3.1-.5-2.9-2.9.2-11.2.2-22.6,0-33.8,0-7.4-3.7-12.9-10-15.2-9.7-3.7-20.1,3.8-20.3,14.5-.1,11.7,0,23.4,0,35.1,0,2-.3,2.9-2.5,2.6-2.9-.2-5.7-.2-8.6,0-1.5,0-2.2-.3-2.2-2,0-12.6-.2-25.2.2-37.8.4-13.6,10.4-25,23.8-27.2,14.5-2,27.4,6,31.7,19.5.9,2.9,1.4,6,1.2,9.1v16.3Z"/>
      <path class="cls-1" d="M288.24,106.56c-5.6.7-11.3-.7-16-3.8-4.8-3.3-8.1-8.3-9.4-14-.3-1.5,0-2,1.5-2,3.4,0,6.9.2,10.3,0,.9-.1,1.8.5,2,1.4,2.9,7.7,12.1,9.4,18.5,7.2,2.7-.8,4.7-3.1,5.1-5.8.4-2.7-.8-5.4-3.1-6.8-2.9-2.3-6.5-3.2-9.8-4.6-4.2-1.7-8.3-3.8-12.1-6.2-10.3-6.1-9.8-21.5.3-28.1,9.4-6,24-5.8,32.1.6,3.4,2.6,5.9,6.1,7.2,10.1.5,1.5.3,2.5-1.7,2.3-3.2-.2-6.4-.2-9.5,0-1.6.1-3-.7-3.8-2-3.1-4.6-9.4-5.8-14-2.7-1,.6-1.8,1.5-2.5,2.4-1.6,1.7-1.5,4.4.2,6,2.2,2.3,5,4,8,4.9,4.9,1.6,9.7,3.6,14.3,6.1,6.1,3.7,9.4,9.1,8.9,16.1-.5,8.2-4.8,13.7-12.3,16.8-4.4,2.3-8.8,2.2-14.2,2.1Z"/>
      <path class="cls-1" d="M97.64,46.26c0-.3.2-.7.2-1.2-.2-3.9,0-7.5-.2-11.4-.2-5.5-4.6-9.9-10.1-10-3.2-.1-6.2,1.1-8.3,3.5-5.1,5-10.1,10-15.2,15.1L.84,105.46c-.3.3-1,.5-.8,1.1.1.6.7.3,1.2.3h30.75l14.87-15.4h-8.82c-.4,0-1,.1-1.2-.3-.2-.4.3-.6.6-.9,8.3-8.5,16.8-16.8,25.1-25.1,6.3-6.2,12.4-12.3,18.6-18.5.4-.5.9-.9,1.4-1.1v39.06h15.1c.04-1,.1-1.99.2-2.96v-15.2c-.2-.3-.2-.6-.2-.9v-19.3Z"/>
      <path class="cls-1" d="M156.84,5.86c-3.4-6.6-11.9-7.9-17.4-2.5-8.7,8.6-17.3,17.4-26.1,26-4.17,4.17-8.4,8.29-12.6,12.44v21.48c4.68-4.67,9.28-9.36,14-13.92l26.8-26.8c.3-.3.5-.9,1.1-.6.6.3.3.7.3,1.2v66.6c0,.9-.1,1.4-1.2,1.4h-43.1c-.3,0-.6-.2-.9-.2-2.4.2-4.8.3-7.2.2-2.6.1-5.2,0-7.8-.2-3.1.2-6,.2-9.1.2-.6,0-.8-.3-1.1-.8-2.3-3.7-4.5-7.2-6.8-10.9-.9-1.4-.8-1.4-2-.2l-11.4,11.4c-.4.3-.7.6-1.1.9-1.6,2.1-3.4,4-5.4,5.7l-8.8,8.8c-.1.1-.1.4-.3.6h111.3c5.6-.4,9.9-4.9,9.9-10.5V10.36c0-1.6-.4-3.1-1.1-4.5Z"/>
    </g>
  </g>
</svg>