<?xml version="1.0" encoding="UTF-8"?>
<svg xmlns="http://www.w3.org/2000/svg" version="1.1" viewBox="0 0 2242.1 766.5">
  <defs>
    <style>
      .cls-1 {
        fill: #fff;
      }
    </style>
  </defs>
  <!-- Generator: Adobe Illustrator 28.7.1, SVG Export Plug-In . SVG Version: 1.2.0 Build 142)  -->
  <g>
    <g id="Layer_1">
      <g id="Layer_4">
        <g id="Layer_1-2" data-name="Layer_1">
          <g>
            <path class="cls-1" d="M360.9,0c9.6,2.5,19.8,3.6,28.6,7.8,16.5,7.8,32.3,17,48.1,26.1,66.4,38.6,132.7,77.5,199.1,116.1,32.4,18.8,52.2,46.4,57.4,83.5,1.8,13.1.8,26.6,1.1,39.8,0,1.5-.2,3-.2,4.5-.2,60.2-.3,120.5-.6,180.8,0,22.5.4,45-.9,67.4-2.4,39.5-20.9,70.2-55.1,90.1-60.9,35.5-122.4,70-183.6,104.9-18.5,10.5-36.7,21.6-55.6,31.4-36,18.7-72.7,19.1-107.8-1.1-79.2-45.4-158-91.5-236.5-138.1C18.4,591.6.4,558.3,0,515.9c-.2-35.6,0-71.2.2-106.9.3-54.9,0-109.9,1.2-164.7.9-41.9,20.5-73.8,56.5-95.5,6-3.6,12.6-6.4,18.1-10.5,8.3-6.3,17.1-6.1,26.5-4,35.3,7.9,61.1,35.9,65.4,71.8.9,7.2.7,14.6.7,21.9,0,64.1.7,128.2-.2,192.3-.6,43.6,17.1,77.6,49.5,105.3,28.2,24.1,60.7,39,97.4,43.6,58.1,7.2,109.4-8.8,152.5-48.8,33.6-31.2,52.9-70.2,57.7-115.7,5.5-51.9-8.5-98.5-41.9-138.8-16.4-19.8-38.5-30.5-63-37-34.8-9.2-69.6-18.5-104.2-28.6-14.9-4.4-27.3,6.5-26.8,20.3.6,16.9.1,33.9.2,50.9,0,14.4,7.2,23.9,21,27.7,22.1,6.1,44,13,66.3,18.1,25.9,6,40.2,22.9,47.5,46.8,14.8,48.4-15.9,98.7-65.8,107-32.6,5.4-60-5.4-81-31.2-7.3-9-10.8-19.8-10.8-31.5,0-98.4-.4-196.8.1-295.1.2-37.3,12.4-71,34.6-101.1,1.2-1.6,3.1-3.2,5-3.8,9.1-2.6,18.2-4.8,27.4-7.2.9-.2,1.8-.6,2.7-1h24Z"/>
            <path class="cls-1" d="M1092.4,381.5c12.9,2.5,22.9,7.7,31.1,16.3,10.9,11.5,15.2,25.5,15.3,41,.1,15.8.2,31.6-.3,47.4-1.1,38.1-27.9,66.9-65.9,71.1-5.6.6-11.3,1-16.9,1-43.8,0-87.6,0-131.4,0-8.3,0-10.5-2.2-10.5-10.7V223.6c0-8.6,2.3-10.9,11-10.9,43.5,0,87-.2,130.4,0,22.5.1,43,6.4,59.2,23.1,10.7,11,17.4,24.5,18.6,39.4,1.5,19.2,2,38.6.6,57.7-1.7,23.3-15.6,38.5-37.3,46.6-.9.4-1.8.8-3.9,1.7h0ZM966.4,458c0,16.3,0,32.6,0,48.9,0,4.2,1.4,6.6,6,6.6,26.7,0,53.3.3,79.9-.2,20.7-.4,32.9-11.2,34.5-31.9,1.2-16,.8-32.2-.3-48.3-.9-14-9.2-23.3-22.6-27.3-4.9-1.5-10.1-2.2-15.2-2.3-25-.2-50-.1-75-.1-6.6,0-7.4.8-7.4,7.6,0,15.6,0,31.3,0,46.9h0ZM966.4,308.5c0,14.8,0,29.6,0,44.4,0,4,1,6.8,5.8,6.7,25.2,0,50.3.2,75.4-.2,19.4-.3,32-11,34.1-30.1,1.4-13.1,1.6-26.6.4-39.8-1.6-17.9-9.8-26.9-25.3-30.4-4.5-1-9.2-1.5-13.8-1.5-23-.1-46,0-69,0-6.6,0-7.6,1-7.6,7.5,0,14.5,0,29,0,43.4h0Z"/>
            <path class="cls-1" d="M1650.7,530.1c-.6.5-1.1.8-1.2,1.2-8.8,17.6-24.3,25.5-42.8,26.6-18.5,1.1-37.3,2-55.8-1.5-31.1-6-53.7-29.1-58.2-60.4-1.1-7.7-1.7-15.5-1.8-23.3-.2-36.1-.2-72.2,0-108.3,0-13.2,2.3-26.2,7.9-38.3,10.9-23.3,29.9-35.9,54.7-40.1,7.8-1.3,15.9-1.8,23.8-1.8,38.3-.2,76.6,0,114.9,0,10.1,0,12.5,2.3,12.5,12.2v250.1c0,10.1-1.9,12-11.8,12h-31c-7.9,0-10.3-2.5-10.3-10.5,0-5.5,0-11-.1-16.5,0-.3-.3-.5-.8-1.3h0ZM1651.6,404.5c0-22.5,0-44.9,0-67.4,0-4.5-1.4-6.9-6.2-6.8-22.3,0-44.6-.3-66.9.1-21.5.4-34.6,13.2-34.8,34.8-.4,37.3-.4,74.5,0,111.8.2,20.4,10.4,32.6,30.5,34.6,15.4,1.5,31.3.7,46.8-.6,10.8-.9,19.6-7.2,24.9-17.1,4.2-7.8,5.7-16.2,5.7-25,0-21.5,0-42.9,0-64.4h0Z"/>
            <path class="cls-1" d="M2118,544.1h-17.4c-9.2,0-12.6-2.5-15.2-11.2-9-30.2-17.9-60.4-26.9-90.6-14.2-48-28.5-96.1-42.7-144.1-3.6-12-2-14.2,10.6-14.2h28.5c9,0,11.9,2.1,14.2,10.7,13,46.8,26,93.7,39.1,140.5,6,21.4,11.9,42.8,17.9,64.2.4,1.5,1,2.9,2.7,4.3.7-2.1,1.5-4.2,2.1-6.3,18.9-67.9,37.7-135.9,56.6-203.8,2-7.3,4.8-9.5,12.5-9.6,10.7,0,21.3,0,32,0,9,0,11.7,3.7,9.2,12.4-25,87.9-50,175.9-75.2,263.7-5.9,20.5-14.7,39.8-28.4,56.7-14.9,18.4-34.8,26.8-57.8,28.3-13.1.9-26.3.4-39.4.4s-9.7-2.7-9.8-10.1c0-8.7,0-17.3,0-26,0-7.5,2.7-10,10.2-10.4,12.1-.7,24.2-1.1,36.2-2.7,11.8-1.6,21.3-8,27.1-18.5,5.7-10.4,10.3-21.4,15.4-32.2-.5-.5-1-1-1.5-1.5h0Z"/>
            <path class="cls-1" d="M1870.7,453c-2.5,5.1-4.5,9-6.3,13-13,27.5-26.1,54.9-39,82.4-3.2,6.8-7.7,10.2-15.5,10-13.5-.4-27,0-40.5-.1-7.1,0-8.8-2.8-5.4-9,23.1-42.1,46.2-84.2,69.3-126.3,1.7-3,1.9-5.3.1-8.6-22.6-40.1-45-80.3-67.4-120.5-4.1-7.2-2.6-10,5.7-10,13.2,0,26.3,0,39.5,0,7.4,0,12.4,3.1,15.6,10,13.4,28.9,27.1,57.7,40.7,86.6.8,1.7,1.8,3.4,3.2,6.2,1.2-2.3,2.1-3.5,2.7-4.9,12.9-29.1,25.9-58.2,38.7-87.5,3.1-7.2,8.1-10.5,15.8-10.5,12.5.1,25,0,37.5,0s2,0,3,0c6.4.6,7.8,3.3,4.7,9-6.8,12.6-13.7,25.1-20.5,37.6-15.2,27.9-30.2,55.8-45.5,83.6-1.6,2.9-1.5,4.9,0,7.7,23.3,41.6,46.5,83.3,69.8,124.9,5.3,9.6,4.3,11.5-6.5,11.5s-25.7-.2-38.5,0c-7.2.2-11.5-2.8-14.5-9.1-14.5-30.4-29.2-60.8-43.8-91.1-.7-1.4-1.5-2.7-2.9-5.1h0Z"/>
            <path class="cls-1" d="M1412.5,370.1v176.3c0,10.2-1.8,12-11.8,12s-21,0-31.5,0c-6.5,0-9-2.5-9.4-9,0-1.3,0-2.7,0-4V193.4c0-1.8,0-3.7.2-5.5.6-4.6,3.2-7.3,8-7.3,12.2,0,24.3-.1,36.5,0,5,0,7.6,2.8,8,7.7.2,1.8,0,3.7,0,5.5v176.3h0Z"/>
            <path class="cls-1" d="M1273.6,421.6v124.3c0,2.2,0,4.3-.2,6.5-.4,3.6-2.4,5.8-6.2,5.8-13,0-26,.3-39-.2-2.2,0-4.9-2.8-6.4-5-1.1-1.7-.8-4.5-.8-6.8,0-83.2,0-166.4,0-249.7s2.1-12.6,12.5-12.6c9.8,0,19.7,0,29.5,0,8.1,0,10.7,2.7,10.7,10.9,0,42.3,0,84.6,0,126.8h0Z"/>
            <path class="cls-1" d="M1273.6,214.4c0,8.1,0,16.3,0,24.4,0,6.2-2.6,8.9-8.8,9-11.6.2-23.3.2-34.9,0-6.2-.1-8.8-2.7-8.9-8.9-.2-16.4-.1-32.9,0-49.3,0-6.1,2.9-8.7,9.1-8.7,11.5,0,22.9,0,34.4,0,6.4,0,9,2.7,9.1,9.1,0,8.1,0,16.3,0,24.4h0Z"/>
          </g>
        </g>
      </g>
    </g>
  </g>
</svg>