<?xml version="1.0" encoding="UTF-8"?>
<svg xmlns="http://www.w3.org/2000/svg" version="1.1" viewBox="0 0 289.1 79.4">
  <defs>
    <style>
      .cls-1 {
        fill: #fff;
      }
    </style>
  </defs>
  <!-- Generator: Adobe Illustrator 28.7.1, SVG Export Plug-In . SVG Version: 1.2.0 Build 142)  -->
  <g>
    <g id="Layer_1">
      <path class="cls-1" d="M51.6,29.4c-6.2-6-16-6-22.2,0-6.1,6.1-6.1,15.9,0,22,0,0,0,0,0,0,6.1,6.1,16.1,6.1,22.2,0,.1-.1.5-.6,1.3-1.4l-7.4-7.3c-.8.9-1.2,1.3-1.2,1.4-2.1,2.1-5.5,2.1-7.6,0-2.1-2-2.1-5.4,0-7.5,2.1-2,5.4-2,7.5,0l19.8,19.6c-5.5,7.9-14.6,12.7-24.3,12.7-16.2,0-29.4-13.1-29.4-29.3,0-16.2,13.1-29.4,29.3-29.4,9.3,0,18,4.4,23.6,11.9-.9,1-3.1,3.5-6.7,7.6l7.3,7.2,12.1-13.5C67.1,3.4,43.6-5.6,23.5,3.4,3.5,12.3-5.5,35.9,3.5,55.9c6.4,14.3,20.6,23.6,36.3,23.5,10,0,18.3-3.1,26.4-10,4.7-4.1,8.4-9.2,10.8-14.8l-25.4-25.3Z"/>
      <path class="cls-1" d="M215,45.1v19h-7.9v-19.4c-1-5.3-6.1-8.7-11.4-7.7-4,.8-7.1,3.9-7.7,7.9v19.2h-7.9V29.6l6,3.8c3.2-2.7,7.2-4.2,11.4-4.2,9.1,0,16.7,6.9,17.4,15.9h0ZM132.6,25.2c-2.6,1.3-4.9,3.1-6.9,5.3-5-7.2-14.9-9-22.1-3.9-7.2,5-9,14.9-3.9,22.1,3,4.3,7.9,6.8,13.1,6.8,2.8,0,5.5-.7,7.9-2,.9,2.8,2.2,5.4,4,7.7-3.7,2-7.7,3-11.9,3-13.5.3-24.6-10.4-24.9-23.9-.3-13.5,10.4-24.6,23.9-24.9.3,0,.7,0,1,0,7.8,0,15.1,3.6,19.8,9.9h0ZM144.3,64.1c-9.5-.1-17.1-7.9-17-17.4.1-9.5,7.9-17.1,17.4-17,9.4.1,17,7.8,17,17.2,0,9.6-7.9,17.3-17.4,17.2h0ZM144.3,56.5c5.3,0,9.5-4.4,9.4-9.7,0-5.3-4.4-9.5-9.7-9.4-5.2,0-9.4,4.3-9.4,9.6,0,5.3,4.4,9.6,9.7,9.6,0,0,0,0,0,0ZM166.6,29.7h7.8v34.5h-7.8V29.7ZM250.9,23.6h-22.2v12.5h21.5v7.8h-21.5v12.5h22.2v7.8h-30.5V15.8h30.5v7.8ZM267.2,46.8l-11.9-17.1h9.9c.3.5.7,1.1,1.3,2l4.1,6.1c.6,1,1.1,1.7,1.4,2.2l.4.7,7.1-11h9.4l-11.7,16.8,12.1,17.6h-9.7l-7.5-11.3-.4.6c-.3.5-.8,1.2-1.5,2.2s-1.4,2.1-2.1,3.2l-2.1,3.2c-.6.9-1,1.5-1.3,2h-9.3l11.9-17.3Z"/>
      <path class="cls-1" d="M165.1,20.5c0-1.4.6-2.7,1.6-3.7,2.1-2.1,5.4-2.1,7.5,0,1,1,1.6,2.3,1.6,3.7,0,2.9-2.4,5.3-5.3,5.3-1.4,0-2.8-.5-3.8-1.5-1-1-1.6-2.4-1.6-3.8h0Z"/>
    </g>
  </g>
</svg>