<?xml version="1.0" encoding="UTF-8"?>
<svg xmlns="http://www.w3.org/2000/svg" version="1.1" viewBox="0 0 334 143">
  <defs>
    <style>
      .cls-1 {
        fill: #fff;
      }
    </style>
  </defs>
  <!-- Generator: Adobe Illustrator 28.7.1, SVG Export Plug-In . SVG Version: 1.2.0 Build 142)  -->
  <g>
    <g id="Layer_1">
      <g id="Layer_1-2" data-name="Layer_1">
        <g id="Layer_4">
          <g id="Layer_1-2">
            <g>
              <g id="iPaTC3">
                <g>
                  <path class="cls-1" d="M128.6,71.9c11.1,11,21.7,21.4,32.2,31.8,10.3,10.2,10.3,12.1-.1,22.4-4.2,4.2-8.4,8.5-12.7,12.7-5.6,5.5-9.9,5.6-15.4,0-10.3-10.2-20.5-20.4-30.7-30.7-1.4-1.4-2.4-3.2-4-5.4-6.1,6.1-11.2,11.3-16.3,16.5-6.7,6.7-13.4,13.5-20.1,20.1-4.9,4.8-9.5,4.9-14.4.1-5.9-5.7-11.6-11.5-17.3-17.3-5.1-5.2-5.1-9.4,0-14.6,26.7-26.8,53.4-53.5,80.1-80.2,7.6-7.6,15.3-15.3,23-22.9,5.1-5,9.7-5,14.7,0,5.8,5.7,11.6,11.5,17.3,17.3,4.9,5,4.9,9.2-.2,14.3-11.8,11.8-23.6,23.5-36.1,35.9h0Z"/>
                  <path class="cls-1" d="M53.9,0c2.6,1.4,5.1,2.1,6.7,3.7,6.3,6,12.4,12.1,18.4,18.3,4.5,4.6,4.5,9,0,13.5-5.9,6.1-11.9,12.1-18,18-4.7,4.5-9.3,4.5-14,0-6-5.8-11.9-11.7-17.6-17.7-4.7-4.8-4.7-9.2,0-13.9,5.8-6,11.7-11.9,17.7-17.6,1.8-1.7,4.3-2.7,6.9-4.2h0Z"/>
                </g>
              </g>
              <g>
                <path class="cls-1" d="M217.4,36.4l15.6,25.8,15.8-25.8h15.6l-23.1,34.9,24.2,36h-16.2l-16.9-26.8-16.5,26.8h-15.5l23.3-36-22.3-34.9h16Z"/>
                <path class="cls-1" d="M322.6,36.4v11h-20.8v59.8h-13.7v-59.8h-20.2v-11h54.8,0Z"/>
              </g>
            </g>
          </g>
        </g>
      </g>
    </g>
  </g>
</svg>