<?xml version="1.0" encoding="UTF-8"?>
<svg xmlns="http://www.w3.org/2000/svg" version="1.1" viewBox="0 0 927.5 321.9">
  <defs>
    <style>
      .cls-1 {
        fill-rule: evenodd;
      }

      .cls-1, .cls-2 {
        fill: #fff;
      }
    </style>
  </defs>
  <!-- Generator: Adobe Illustrator 28.7.1, SVG Export Plug-In . SVG Version: 1.2.0 Build 142)  -->
  <g>
    <g id="Layer_1">
      <g id="Layer_1-2">
        <path class="cls-1" d="M107.7,167.5l1.2-1.2,1.4-1.5,2.1-2,1.3-1.4c21.6-24.1,58.7-26.1,82.7-4.3.4.4.8.8,1.2,1.1,1.3,1.3,2.5,2.4,3.5,3.3,10.8,9.8,17.3,15.7,27.7,26.1,10.3,10.4,20.5,21.3,33.8,35.9,13.3,14.5,13.3,36.7,0,50.1-13.3,13.3-34.8,13.3-48,0l-5.5-5.5-1.7-1.8-5.7-5.7-1.5-1.5-6.9-6.9-1.2-1.2-6.1-6.2c-1.1-1-4.2-4-9.4-9l-.5-.5c-11.2-10.8-28.9-10.7-39.9.2-5.2,5.1-8.3,8.2-9.4,9.3l-.2.2-1.4,1.5-1.1,1-.5.6-2.3,2.2-4,4.1-16.3,16.4-.9.9-1.9,1.9c-2,1.9-4.1,3.6-6.4,5-5.2,3.3-11.4,5.3-18.1,5.3-18.8,0-34-15.3-34-34.2V59.2c0-18.8,15.2-34.1,34-34.1s34,15.3,34,34.1v108.3ZM264.1,87.8l-28.5,34.5c-12.9,15.7-36.1,18-51.8,5-15.7-13-18-36.2-5-51.9l28.5-34.5c13-15.7,36.2-17.9,51.9-5,15.7,13,17.9,36.2,4.9,51.9Z"/>
        <path class="cls-2" d="M453.5,208.7l-62.9-60.1,57.4-49.7c4.8-4.2,5.7-8.3,5.7-11.4,0-7-5.5-12.5-12.9-12.5s-7,1.3-11.2,5.3l-69.2,63.7h-.7v-53.4c0-13.2-9.2-15.6-13.8-15.6s-13.8,2.4-13.8,15.6v127.9c0,13.2,9.2,15.6,13.8,15.6s13.8-2.4,13.8-15.6v-64.2h.7l72.9,74.1c4,4.1,8.1,5.7,11.6,5.7,8.4,0,14.3-5.9,14.3-14s-1.6-7.3-5.7-11.4h0Z"/>
        <path class="cls-2" d="M558.4,236c22.2,0,39.7-7.9,49.6-17.5,4.1-4.2,5.7-8.4,5.7-11.9,0-7.4-5.5-12-12.3-12s-5.7.6-10.3,4.6c-9.7,8.5-20.2,12-32.4,12-32,0-52.6-23.4-52.6-57.2s21.7-56.7,53.7-56.7,21.9,4.4,28,9.6c4.8,3.5,7.7,4.4,10.5,4.4,7.5,0,12.9-5.7,12.9-12.7s-.8-6.8-6.1-11.4c-10.3-8.8-27.6-14.2-45.3-14.2-47.8,0-84.2,31.3-84.2,81s34.4,82,82.8,82h0Z"/>
        <path class="cls-2" d="M722.5,163.7c11.6,0,13.1-8.1,13.1-11.6s-1.5-11.6-13.1-11.6h-60v-39.5h63.5c11.8,0,13.6-8.3,13.6-12s-1.8-12.1-13.6-12.1h-74.7c-11.2,0-16.5,5.3-16.5,16.4v122.3c0,11.2,5.3,16.4,16.5,16.4h78.9c11.6,0,13.3-8.3,13.3-12.2s-1.7-12.3-13.3-12.3h-67.7v-43.8h60Z"/>
        <path class="cls-2" d="M884,209.9l-43.6-60,37.5-52.4c3.1-4.2,3.9-7.4,3.9-10.1,0-7.4-5.4-12.5-12.7-12.5s-7.6,1.1-12,7.3l-33.3,48.4-34.4-48.4c-4.4-6.2-8.8-7.3-12.3-7.3-7.4,0-13.4,5.7-13.4,13s.9,6.1,4.4,10.7l37.9,50.6-43.3,60.7c-3.6,5.1-4.4,8.1-4.4,11,0,7.6,5.7,13.1,13.3,13.1s8.1-1.1,12.5-7.4l38.6-56.1,39.2,55.8c4.6,6.6,9,7.7,12.5,7.7,7.9,0,14-5.5,14-13.4s-.9-5.9-4.4-10.7h0Z"/>
      </g>
    </g>
  </g>
</svg>