<?xml version="1.0" encoding="UTF-8"?>
<svg xmlns="http://www.w3.org/2000/svg" version="1.1" viewBox="0 0 745.7 188">
  <defs>
    <style>
      .cls-1, .cls-2, .cls-3 {
        fill: #fff;
      }

      .cls-2 {
        opacity: .8;
      }

      .cls-2, .cls-3 {
        isolation: isolate;
      }

      .cls-3 {
        opacity: .5;
      }
    </style>
  </defs>
  <!-- Generator: Adobe Illustrator 28.7.1, SVG Export Plug-In . SVG Version: 1.2.0 Build 142)  -->
  <g>
    <g id="Layer_1">
      <g id="Layer_1-2" data-name="Layer_1">
        <path class="cls-1" d="M236.3,130.5V59.3h31.4c15,0,23.3,10.3,23.3,22.4s-8.5,22.3-23.3,22.3h-18.8v26.6h-12.6ZM265.9,70.3h-17.1v22.7h17.1c7.1,0,12.2-4.5,12.2-11.3s-5.1-11.4-12.2-11.4Z"/>
        <path class="cls-1" d="M334.5,58.2c21.4,0,36.4,15.6,36.4,36.9s-15.1,36.8-36.5,36.8-36.3-15.6-36.3-36.9,15.1-36.9,36.4-36.8ZM334.5,69.3c-14.4,0-23.6,11-23.6,25.7s9.1,25.7,23.6,25.7,23.6-11.1,23.6-25.7-9.3-25.7-23.6-25.7h0Z"/>
        <path class="cls-1" d="M383,130.7V59.5h12.6v60.2c-.1,0,31.3,0,31.3,0v11h-43.9Z"/>
        <path class="cls-1" d="M468.2,58.4c21.4,0,36.4,15.6,36.4,36.9s-15.1,36.8-36.5,36.8-36.4-15.6-36.4-36.9,15.2-36.9,36.5-36.8ZM468.2,69.4c-14.4,0-23.6,11-23.6,25.7s9.1,25.8,23.6,25.8,23.6-11.1,23.6-25.7-9.2-25.7-23.6-25.8h0Z"/>
        <path class="cls-1" d="M566.4,130.9l-37.1-52v51.9h-12.5V59.6h12.9l36.3,50.6v-50.5h12.5v71.2h-12.1Z"/>
        <path class="cls-1" d="M593.6,130.9V59.7h12.6v71.2h-12.6Z"/>
        <path class="cls-1" d="M621.3,131V59.7h48.9v11h-36.3c0,0,0,18.4,0,18.4h35.6v11h-35.6v19.7h36.3v11l-48.9.2Z"/>
        <path class="cls-1" d="M730.6,131.1l-19.9-27.9-20,27.9h-15l26.8-36.5-25-34.8h15l18.3,26.2,18.3-26.1h15.1l-25,34.6,26.5,36.7h-15.1,0Z"/>
        <path class="cls-3" d="M162.5,52.2v42.6l-36.9-21.3-36.9-21.4,37-21.2,36.9-21.3v42.6h-.1Z"/>
        <path class="cls-2" d="M88.6,94.7v42.6l-36.9-21.3-36.9-21.4,36.9-21.2,36.9-21.3v42.6h0Z"/>
        <path class="cls-1" d="M14.8,52V9.4l36.9,21.3,36.9,21.3-36.9,21.4-36.9,21.2s0-42.6,0-42.6Z"/>
        <path class="cls-3" d="M14.7,137.2v-42.6l37,21.4,36.9,21.3-36.9,21.3-37,21.2v-42.6h0Z"/>
        <path class="cls-1" d="M125.6,73.5l-36.9-21.4v85.2l36.8,21.4,36.9,21.3v-85.2c.1,0-36.8-21.3-36.8-21.3h0Z"/>
      </g>
    </g>
  </g>
</svg>