<?xml version="1.0" encoding="UTF-8"?>
<svg xmlns="http://www.w3.org/2000/svg" version="1.1" viewBox="0 0 24 23.5">
  <defs>
    <style>
      .cls-1 {
        fill: #fff;
      }
    </style>
  </defs>
  <!-- Generator: Adobe Illustrator 28.7.1, SVG Export Plug-In . SVG Version: 1.2.0 Build 142)  -->
  <g>
    <g id="Layer_1">
      <g>
        <path class="cls-1" d="M21.7,2.8c0-.2-.2-.3-.3-.4-.1-.1-.2-.2-.4-.3-.2,0-.3,0-.5,0h-5c-.7,0-1.2.6-1.2,1.2s.6,1.2,1.2,1.2h2l-6.9,6.9c-.2.2-.4.6-.4.9s.1.6.4.9c.2.2.5.4.9.4s.6-.1.9-.4l6.9-6.9v2c0,.7.6,1.2,1.2,1.2s1.2-.6,1.2-1.2V3.3c0-.2,0-.3,0-.5Z"/>
        <path class="cls-1" d="M18.5,11.5c-.7,0-1.2.6-1.2,1.2v5.6c0,.3-.3.6-.6.6H5.4c-.3,0-.6-.3-.6-.6V7.1c0-.3.3-.6.6-.6h6.1c.7,0,1.2-.6,1.2-1.2s-.6-1.2-1.2-1.2h-6.1c-1.7,0-3.1,1.4-3.1,3.1v11.3c0,1.7,1.4,3.1,3.1,3.1h11.2c1.7,0,3.1-1.4,3.1-3.1v-5.6c0-.7-.6-1.2-1.2-1.2Z"/>
      </g>
    </g>
  </g>
</svg>