<svg width="90" height="90" viewBox="0 0 90 90" fill="none" xmlns="http://www.w3.org/2000/svg">
<path d="M25.1772 50.3328L7.56187 44.5934C7.56187 44.5934 5.45661 43.7392 6.13448 41.8024C6.27401 41.403 6.55551 41.0632 7.39768 40.4791C11.3007 37.7585 79.6409 13.1953 79.6409 13.1953C79.6409 13.1953 81.5704 12.5451 82.7084 12.9775C82.99 13.0647 83.2433 13.225 83.4425 13.4422C83.6418 13.6594 83.7798 13.9257 83.8423 14.2136C83.9653 14.7223 84.0167 15.2456 83.9951 15.7684C83.9896 16.2208 83.935 16.64 83.8934 17.2975C83.4772 24.0132 71.0215 74.1346 71.0215 74.1346C71.0215 74.1346 70.2762 77.0674 67.6061 77.168C66.9499 77.1891 66.2963 77.078 65.6839 76.8411C65.0717 76.6043 64.5134 76.2466 64.0423 75.7894C58.8026 71.2823 40.6928 59.1116 36.6911 56.435C36.6008 56.3735 36.5248 56.2934 36.4682 56.1999C36.4115 56.1066 36.3755 56.0021 36.3626 55.8937C36.3068 55.6115 36.6135 55.2621 36.6135 55.2621C36.6135 55.2621 68.1475 27.2324 68.9865 24.2899C69.0515 24.0619 68.8061 23.9494 68.4765 24.0493C66.382 24.8198 30.0746 47.7482 26.0675 50.2786C25.779 50.3659 25.4742 50.3845 25.1772 50.3328Z" fill="white"/>
</svg>
