<?xml version="1.0" encoding="UTF-8"?>
<svg id="Layer_1" xmlns="http://www.w3.org/2000/svg" version="1.1" viewBox="0 0 48 48">
  <!-- Generator: Adobe Illustrator 29.1.0, SVG Export Plug-In . SVG Version: 2.1.0 Build 142)  -->
  <defs>
    <style>
      .st0 {
        fill: #fff;
      }
    </style>
  </defs>
  <g id="_x37_UvW4F.tif">
    <path class="st0" d="M32.5,1c.2,2.7,1.1,5.5,2.9,7.5s5.4,3.6,8.6,3.9v7.7c-4,0-7.9-1.4-11.1-3.6v14.2c.3,5.8-1.9,11.1-6.9,14.2-9.5,5.8-21.5-.8-21.9-11.8s7.8-16.1,16.6-14.7h.1c0,0,0,8.5,0,8.5-4-1.3-8.4,1.4-8.7,5.6-.5,6.7,8,9.7,11.8,4.3s1-2.3,1.1-4c.4-9.6-.2-19.5,0-29.2s0-1.7,0-2.6h7.5Z"/>
  </g>
</svg>